{
  "accessors": [
    {
      "bufferView": 2,
      "componentType": 5126,
      "count": 1834,
      "max": [
        0.43257099390029907,
        0.8998200297355652,
        0.9066969752311707
      ],
      "min": [
        -0.44717898964881897,
        -0.9165470004081726,
        -0.9097729921340942
      ],
      "type": "VEC3"
    },
    {
      "bufferView": 2,
      "byteOffset": 22008,
      "componentType": 5126,
      "count": 1834,
      "max": [
        1.0,
        0.999530017375946,
        0.9995281100273132
      ],
      "min": [
        -0.9999488592147827,
        -0.9995307326316833,
        -0.9995286464691162
      ],
      "type": "VEC3"
    },
    {
      "bufferView": 3,
      "componentType": 5126,
      "count": 1834,
      "max": [
        0.9960582256317139,
        0.9996402263641357,
        0.9548905491828918,
        1.0
      ],
      "min": [
        -0.9996000528335571,
        -0.9993120431900024,
        -0.9987683892250061,
        1.0
      ],
      "type": "VEC4"
    },
    {
      "bufferView": 1,
      "componentType": 5126,
      "count": 1834,
      "max": [
        0.9560390114784241,
        0.9854099750518799
      ],
      "min": [
        0.2676669955253601,
        0.0024429999757558107
      ],
      "type": "VEC2"
    },
    {
      "bufferView": 1,
      "byteOffset": 14672,
      "componentType": 5126,
      "count": 1834,
      "max": [
        0.6129630208015442,
        0.999908983707428
      ],
      "min": [
        9.100000170292333e-05,
        9.100000170292333e-05
      ],
      "type": "VEC2"
    },
    {
      "bufferView": 0,
      "componentType": 5125,
      "count": 10068,
      "type": "SCALAR"
    },
    {
      "bufferView": 2,
      "byteOffset": 44016,
      "componentType": 5126,
      "count": 1247,
      "max": [
        0.5064510107040405,
        1.3653010129928589,
        1.3653160333633423
      ],
      "min": [
        -0.5064510107040405,
        -1.3681609630584717,
        -1.3681470155715942
      ],
      "type": "VEC3"
    },
    {
      "bufferView": 2,
      "byteOffset": 58980,
      "componentType": 5126,
      "count": 1247,
      "max": [
        0.9939286708831787,
        1.0,
        1.0
      ],
      "min": [
        -0.9939286708831787,
        -1.0,
        -1.0
      ],
      "type": "VEC3"
    },
    {
      "bufferView": 3,
      "byteOffset": 29344,
      "componentType": 5126,
      "count": 1247,
      "max": [
        1.0,
        0.993925154209137,
        0.993925154209137,
        1.0
      ],
      "min": [
        -0.5379676818847656,
        -0.9939252138137817,
        -0.993925154209137,
        1.0
      ],
      "type": "VEC4"
    },
    {
      "bufferView": 1,
      "byteOffset": 29344,
      "componentType": 5126,
      "count": 1247,
      "max": [
        0.22895899415016174,
        0.9997559785842896
      ],
      "min": [
        0.00024399999529123306,
        0.00024399999529123306
      ],
      "type": "VEC2"
    },
    {
      "bufferView": 1,
      "byteOffset": 39320,
      "componentType": 5126,
      "count": 1247,
      "max": [
        0.0,
        0.0
      ],
      "min": [
        0.0,
        0.0
      ],
      "type": "VEC2"
    },
    {
      "bufferView": 0,
      "byteOffset": 40272,
      "componentType": 5125,
      "count": 7056,
      "type": "SCALAR"
    }
  ],
  "asset": {
    "extras": {
      "author": "Taheer (https://sketchfab.com/cakirtahir389)",
      "license": "CC-BY-4.0 (http://creativecommons.org/licenses/by/4.0/)",
      "source": "https://sketchfab.com/3d-models/old-dirty-tire-ec06c0af626746e7a44de65436037173",
      "title": "Old Dirty Tire"
    },
    "generator": "Sketchfab-14.1.0",
    "version": "2.0"
  },
  "bufferViews": [
    {
      "buffer": 0,
      "byteLength": 68496,
      "name": "floatBufferViews",
      "target": 34963
    },
    {
      "buffer": 0,
      "byteLength": 49296,
      "byteOffset": 68496,
      "byteStride": 8,
      "name": "floatBufferViews",
      "target": 34962
    },
    {
      "buffer": 0,
      "byteLength": 73944,
      "byteOffset": 117792,
      "byteStride": 12,
      "name": "floatBufferViews",
      "target": 34962
    },
    {
      "buffer": 0,
      "byteLength": 49296,
      "byteOffset": 191736,
      "byteStride": 16,
      "name": "floatBufferViews",
      "target": 34962
    }
  ],
  "buffers": [
    {
      "byteLength": 241032,
      "uri": "scene.bin"
    }
  ],
  "images": [
    {
      "uri": "textures/Material_baseColor.jpeg"
    },
    {
      "uri": "textures/Material_metallicRoughness.png"
    },
    {
      "uri": "textures/Material_normal.png"
    }
  ],
  "materials": [
    {
      "doubleSided": true,
      "name": "Material",
      "normalTexture": {
        "index": 2
      },
      "occlusionTexture": {
        "index": 1
      },
      "pbrMetallicRoughness": {
        "baseColorTexture": {
          "index": 0
        },
        "metallicRoughnessTexture": {
          "index": 1
        }
      }
    }
  ],
  "meshes": [
    {
      "name": "defaultMaterial",
      "primitives": [
        {
          "attributes": {
            "NORMAL": 1,
            "POSITION": 0,
            "TANGENT": 2,
            "TEXCOORD_0": 3,
            "TEXCOORD_1": 4
          },
          "indices": 5,
          "material": 0,
          "mode": 4
        }
      ]
    },
    {
      "name": "defaultMaterial",
      "primitives": [
        {
          "attributes": {
            "NORMAL": 7,
            "POSITION": 6,
            "TANGENT": 8,
            "TEXCOORD_0": 9,
            "TEXCOORD_1": 10
          },
          "indices": 11,
          "material": 0,
          "mode": 4
        }
      ]
    }
  ],
  "nodes": [
    {
      "children": [
        1
      ],
      "matrix": [
        1.0,
        0.0,
        0.0,
        0.0,
        0.0,
        2.220446049250313e-16,
        -1.0,
        0.0,
        0.0,
        1.0,
        2.220446049250313e-16,
        0.0,
        0.0,
        0.0,
        0.0,
        1.0
      ],
      "name": "Sketchfab_model"
    },
    {
      "children": [
        2,
        4
      ],
      "matrix": [
        1.0,
        0.0,
        0.0,
        0.0,
        0.0,
        -4.371139006309477e-08,
        0.999999999999999,
        0.0,
        0.0,
        -0.999999999999999,
        -4.371139006309477e-08,
        0.0,
        0.0,
        0.0,
        0.0,
        1.0
      ],
      "name": "Collada visual scene group"
    },
    {
      "children": [
        3
      ],
      "matrix": [
        100.0,
        0.0,
        0.0,
        0.0,
        0.0,
        -1.6e-05,
        -100.0,
        0.0,
        0.0,
        100.0,
        -1.6e-05,
        0.0,
        0.0,
        0.0,
        0.0,
        1.0
      ],
      "name": "steelRim_low"
    },
    {
      "mesh": 0,
      "name": "defaultMaterial"
    },
    {
      "children": [
        5
      ],
      "matrix": [
        100.0,
        0.0,
        0.0,
        0.0,
        0.0,
        -1.6e-05,
        -100.0,
        0.0,
        0.0,
        100.0,
        -1.6e-05,
        0.0,
        0.0,
        0.0,
        0.0,
        1.0
      ],
      "name": "tire_low"
    },
    {
      "mesh": 1,
      "name": "defaultMaterial"
    }
  ],
  "samplers": [
    {
      "magFilter": 9729,
      "minFilter": 9987,
      "wrapS": 10497,
      "wrapT": 10497
    }
  ],
  "scene": 0,
  "scenes": [
    {
      "name": "Sketchfab_Scene",
      "nodes": [
        0
      ]
    }
  ],
  "textures": [
    {
      "sampler": 0,
      "source": 0
    },
    {
      "sampler": 0,
      "source": 1
    },
    {
      "sampler": 0,
      "source": 2
    }
  ]
}
